/* XPM */
static const char * freerail_32_xpm[] = {
"32 32 373 2",
"  	c None",
". 	c #363636",
"+ 	c #545454",
"@ 	c #5A5A5A",
"# 	c #30302F",
"$ 	c #E4E2FF",
"% 	c #DDDBF9",
"& 	c #DDDBFA",
"* 	c #7E7E7E",
"= 	c #D7D7D7",
"- 	c #ABABAB",
"; 	c #6E6E6E",
"> 	c #3E3E3E",
", 	c #2E2E2D",
"' 	c #9796AD",
") 	c #DDDBFB",
"! 	c #DAD9F8",
"~ 	c #DAD9F9",
"{ 	c #DBD9F9",
"] 	c #DAD8F8",
"^ 	c #787878",
"/ 	c #EFEFEF",
"( 	c #BCBCBC",
"_ 	c #707070",
": 	c #282826",
"< 	c #9493AA",
"[ 	c #DCDAFC",
"} 	c #D8D6F8",
"| 	c #D8D6F7",
"1 	c #D8D7F8",
"2 	c #E5E4FF",
"3 	c #7A7A7C",
"4 	c #E1E1E1",
"5 	c #B6B6B6",
"6 	c #6D6D6D",
"7 	c #323234",
"8 	c #A9A8C3",
"9 	c #E2E0FF",
"0 	c #D2D0F2",
"a 	c #D6D4F8",
"b 	c #DFDDFF",
"c 	c #DEDCFF",
"d 	c #DDDBFE",
"e 	c #DBD9FC",
"f 	c #D9D7FA",
"g 	c #D7D5F7",
"h 	c #D7D4F7",
"i 	c #D6D4F7",
"j 	c #D3D2F6",
"k 	c #DCDAFF",
"l 	c #76767B",
"m 	c #C6C6C6",
"n 	c #A7A7A7",
"o 	c #646464",
"p 	c #3F3F3F",
"q 	c #242426",
"r 	c #47474A",
"s 	c #636263",
"t 	c #81817F",
"u 	c #8E8E8C",
"v 	c #999998",
"w 	c #99999B",
"x 	c #95959A",
"y 	c #96969E",
"z 	c #9999A4",
"A 	c #9494A1",
"B 	c #7B7B8C",
"C 	c #747388",
"D 	c #A3A2BD",
"E 	c #D6D5F9",
"F 	c #D1D0F5",
"G 	c #D2D1F5",
"H 	c #D7D6FC",
"I 	c #71727A",
"J 	c #ADADAD",
"K 	c #939393",
"L 	c #575757",
"M 	c #404040",
"N 	c #616161",
"O 	c #9A9A9A",
"P 	c #8E8E8E",
"Q 	c #737373",
"R 	c #757575",
"S 	c #7B7B7B",
"T 	c #565656",
"U 	c #797979",
"V 	c #6F6F6F",
"W 	c #878787",
"X 	c #8C8C8B",
"Y 	c #5C5C68",
"Z 	c #C5C4E7",
"` 	c #CECEF4",
" .	c #CFCFF4",
"..	c #D2D1F7",
"+.	c #757483",
"@.	c #7C7C7C",
"#.	c #4A4A4A",
"$.	c #3A3A3A",
"%.	c #0F0F0F",
"&.	c #000000",
"*.	c #8B8B8B",
"=.	c #676767",
"-.	c #6B6B6B",
";.	c #7D7D7D",
">.	c #4D4D4D",
",.	c #555462",
"'.	c #BFBEE1",
").	c #CCCBF3",
"!.	c #CDCBF3",
"~.	c #CDCCF3",
"{.	c #77778B",
"].	c #656565",
"^.	c #424242",
"/.	c #272727",
"(.	c #454545",
"_.	c #010101",
":.	c #6A6A6A",
"<.	c #464646",
"[.	c #525252",
"}.	c #555564",
"|.	c #BFBFE3",
"1.	c #CACAF2",
"2.	c #CBCAF2",
"3.	c #CDCCF5",
"4.	c #73738A",
"5.	c #696969",
"6.	c #BFBFBF",
"7.	c #919191",
"8.	c #B1B1B1",
"9.	c #C9C9C9",
"0.	c #BEBEBE",
"a.	c #919190",
"b.	c #565567",
"c.	c #C1C1E7",
"d.	c #C7C7F1",
"e.	c #C7C8F1",
"f.	c #C8C8F2",
"g.	c #9191AD",
"h.	c #BABAB8",
"i.	c #CECECE",
"j.	c #868686",
"k.	c #C2C2C2",
"l.	c #838383",
"m.	c #999999",
"n.	c #A0A0A0",
"o.	c #8D8D8D",
"p.	c #9E9E9E",
"q.	c #8D8D8C",
"r.	c #5B5B6F",
"s.	c #C3C3EC",
"t.	c #C6C6F0",
"u.	c #C7C7F3",
"v.	c #D5D5D5",
"w.	c #CCCCCC",
"x.	c #BDBDBD",
"y.	c #BBBBBB",
"z.	c #969696",
"A.	c #9B9B9B",
"B.	c #A1A1A1",
"C.	c #5C5C5C",
"D.	c #898989",
"E.	c #818181",
"F.	c #474747",
"G.	c #7F7F7F",
"H.	c #414141",
"I.	c #747474",
"J.	c #828282",
"K.	c #4A4A49",
"L.	c #66667D",
"M.	c #C6C6F1",
"N.	c #C2C3EF",
"O.	c #C3C4EF",
"P.	c #9393B7",
"Q.	c #C9C9C8",
"R.	c #CBCBCB",
"S.	c #555555",
"T.	c #A2A2A2",
"U.	c #E2E2E2",
"V.	c #4F4F4F",
"W.	c #777777",
"X.	c #595959",
"Y.	c #333333",
"Z.	c #484848",
"`.	c #686868",
" +	c #9D9D9D",
".+	c #1A1A19",
"++	c #65657D",
"@+	c #C6C7F3",
"#+	c #C3C3EF",
"$+	c #C0C1EE",
"%+	c #C0C2EE",
"&+	c #9395B9",
"*+	c #C0C0BF",
"=+	c #BABABA",
"-+	c #0B0B0B",
";+	c #8F8F8F",
">+	c #292929",
",+	c #C0C0C0",
"'+	c #727272",
")+	c #393939",
"!+	c #3D3D3D",
"~+	c #434343",
"{+	c #444444",
"]+	c #2C2C2C",
"^+	c #D0D0D0",
"/+	c #2D2D2F",
"(+	c #B9BAE5",
"_+	c #BFBEED",
":+	c #C2C2F3",
"<+	c #8C8C8D",
"[+	c #B3B3B3",
"}+	c #383838",
"|+	c #848484",
"1+	c #A6A6A6",
"2+	c #929292",
"3+	c #343434",
"4+	c #3B3B3B",
"5+	c #080808",
"6+	c #202020",
"7+	c #666666",
"8+	c #515151",
"9+	c #444451",
"0+	c #8686A7",
"a+	c #A1A1C9",
"b+	c #C0BFEE",
"c+	c #BBBCEC",
"d+	c #BCBDEC",
"e+	c #7B7C9B",
"f+	c #939392",
"g+	c #A5A5A5",
"h+	c #2E2E2E",
"i+	c #313131",
"j+	c #1C1C1C",
"k+	c #070707",
"l+	c #131313",
"m+	c #1F1F1F",
"n+	c #8181A2",
"o+	c #B5B6E4",
"p+	c #BCBDED",
"q+	c #BBBDEC",
"r+	c #BABBEC",
"s+	c #BABAEC",
"t+	c #72728D",
"u+	c #70706F",
"v+	c #808080",
"w+	c #222222",
"x+	c #121212",
"y+	c #020202",
"z+	c #242424",
"A+	c #171717",
"B+	c #2F2F2F",
"C+	c #151515",
"D+	c #494949",
"E+	c #3E3E4E",
"F+	c #9394BB",
"G+	c #BBBCED",
"H+	c #B9BAEB",
"I+	c #B7B9EA",
"J+	c #B7B8EA",
"K+	c #B9BAED",
"L+	c #646479",
"M+	c #0D0D0D",
"N+	c #0E0E0E",
"O+	c #5E5E5E",
"P+	c #606060",
"Q+	c #3A3B3D",
"R+	c #8080A4",
"S+	c #AFB0E0",
"T+	c #B7B9EB",
"U+	c #B4B6EA",
"V+	c #B9BBF1",
"W+	c #78787B",
"X+	c #ACACAC",
"Y+	c #5F5F5F",
"Z+	c #2D2D2D",
"`+	c #2A2A2A",
" @	c #353535",
".@	c #61626F",
"+@	c #9596C1",
"@@	c #B6B7EB",
"#@	c #B4B6E9",
"$@	c #B3B4E9",
"%@	c #B2B4E8",
"&@	c #787899",
"*@	c #979797",
"=@	c #9C9C9C",
"-@	c #989898",
";@	c #585858",
">@	c #2B2B2B",
",@	c #262625",
"'@	c #5D5D5B",
")@	c #595A73",
"!@	c #A2A3D3",
"~@	c #B2B3E8",
"{@	c #B0B2E8",
"]@	c #B1B2EA",
"^@	c #7F7F81",
"/@	c #949494",
"(@	c #A4A4A4",
"_@	c #101010",
":@	c #1D1D1D",
"<@	c #717171",
"[@	c #626481",
"}@	c #5F617C",
"|@	c #7D7EA4",
"1@	c #ADAFE6",
"2@	c #AEB0E6",
"3@	c #AFB1E8",
"4@	c #71728E",
"5@	c #C3C3C3",
"6@	c #474758",
"7@	c #8D8FBB",
"8@	c #AFB1E9",
"9@	c #ADAFE5",
"0@	c #ACAEE6",
"a@	c #ACADE5",
"b@	c #9597CA",
"c@	c #A2A2A1",
"d@	c #A3A3A3",
"e@	c #8C8C8C",
"f@	c #E5E5E5",
"g@	c #535353",
"h@	c #141413",
"i@	c #3E3E3D",
"j@	c #494947",
"k@	c #75769F",
"l@	c #525267",
"m@	c #6D6E92",
"n@	c #A3A5DB",
"o@	c #A8ACE5",
"p@	c #9194C8",
"q@	c #B1B0AE",
"r@	c #909090",
"s@	c #E6E6E6",
"t@	c #7E7E7F",
"u@	c #4D4E69",
"v@	c #464655",
"w@	c #4E4E5D",
"x@	c #8183AE",
"y@	c #ACAFEA",
"z@	c #989BCE",
"A@	c #A9ACE6",
"B@	c #A9ACE5",
"C@	c #B0B2F1",
"D@	c #828390",
"E@	c #C5C5C5",
"F@	c #B0B0B0",
"G@	c #DCDCDC",
"H@	c #C1C1C1",
"I@	c #858585",
"J@	c #888ABB",
"K@	c #ABADE9",
"L@	c #9596CB",
"M@	c #9EA1D9",
"N@	c #A6A8E3",
"O@	c #A7A8E4",
"P@	c #DFDFDF",
"Q@	c #E2E2E1",
"R@	c #B8B8B6",
"S@	c #858487",
"T@	c #606172",
"U@	c #595B7E",
"V@	c #878ABC",
"W@	c #A5A7E3",
"X@	c #A4A6E3",
"Y@	c #A4A7E3",
"Z@	c #5E5F67",
"`@	c #4C4D67",
" #	c #5F6189",
".#	c #8487B9",
"+#	c #8F92C9",
"@#	c #9EA1DD",
"##	c #A4A7E4",
"                                                                ",
"                                                                ",
"                                                                ",
"                  . + @ @ @ # $ % & & & % % %                   ",
"                  * = - ; > , ' ) ! ! ! ! ! ~ { ]               ",
"                  ^ / ( _ > : < [ } } } } } } } | 1 |           ",
"                2 3 4 5 6 > 7 8 9 0 a b c b d e f g h i         ",
"              j k l m n o p q r s t u v w x y z A B C D E       ",
"            F G H I J K L M N O P Q R _ S S T U V W X Y Z       ",
"          `  . ...+.K @.#.$.%.&.&.*.=.&.&.-.;.&.&.>.-.,.'.`     ",
"        ).!.).).~.{.U ].^./.(._.#.:.].<.&.V @.&.&.[.; }.|.!.    ",
"        1.2.2.2.3.4.-.* 5.$.6.7.8.9.0.-.$.; @.&.&.* a.b.c.2.    ",
"      d.d.e.e.f.g.h.= i.9.0.j.k.l.m.n.o._ p.@.&.&.L q.r.s.e.    ",
"      t.t.t.t.u.P v.w.x.y.5 z.A.B.C.D.E.F.* G.H.I.J.K.L.M.t.    ",
"    N.O.O.O.O.P.Q.R.S.T.; O U.@ J.V.W.X.Y.Q Z.`. +4 .+++@+#+    ",
"    $+%+%+%+%+&+*+=+-+;+>+8.,+#.'+)+!+~+~+{+]+^+5.Y.Q /+(+%+    ",
"    _+_+_+_+_+:+<+[+* }+|+1+2+~+3+^.4+>+5+&.]+6+7+8+9+0+a+b+    ",
"    c+c+c+c+c+d+e+f+n. +O g+h+!+i+j+k+&._ k+l+o m+&.n+o+p+q+    ",
"    r+s+s+s+s+r+t+u+v+E.|+M w+x+y+z+j+A+~+B+C+D+&.E+F+G+H+      ",
"    I+J+J+J+J+K+L+6 ].; `.].&.M+N+(.p ^.Y.O+P+^.Q+R+S+J+T+      ",
"    U+U+U+U+U+V+W+K l.* l.X+Y+w+N+'+S B+M+Z+`+ @.@+@@@#@        ",
"    $@%@%@%@$@&@a.*@6 *.=@W -@&.M+;@M+>@)+C.,@'@)@!@~@$@        ",
"    {@{@{@{@]@^@D.o W /@T.(@0._@:@'+<@}+B+r [@}@|@{@{@          ",
"      1@2@3@4@q.K -@K 7.-@5@5 j+&.I.-.&.R 6@7@8@9@1@            ",
"      0@a@b@c@d@o.O 2+P e@f@/@g@h@i@j@k@l@m@n@a@0@              ",
"        o@p@q@r@/@[+6.*.*.s@o.t@u@v@w@x@y@z@A@B@                ",
"          C@D@E@*.;+^+g+F@G@H@I@J@K@L@M@N@O@                    ",
"              U.8.z.P@Q@R@S@T@U@V@W@X@Y@                        ",
"              R m.v+Z@`@ #.#+#@###                              ",
"                                                                ",
"                                                                ",
"                                                                "};
