<?xml version="1.0" encoding="UTF-8" standalone="no"?>
<!-- Created with Inkscape (http://www.inkscape.org/) -->

<svg
   xmlns:dc="http://purl.org/dc/elements/1.1/"
   xmlns:cc="http://creativecommons.org/ns#"
   xmlns:rdf="http://www.w3.org/1999/02/22-rdf-syntax-ns#"
   xmlns:svg="http://www.w3.org/2000/svg"
   xmlns="http://www.w3.org/2000/svg"
   xmlns:xlink="http://www.w3.org/1999/xlink"
   xmlns:sodipodi="http://sodipodi.sourceforge.net/DTD/sodipodi-0.dtd"
   xmlns:inkscape="http://www.inkscape.org/namespaces/inkscape"
   version="1.0"
   width="400"
   height="360"
   id="svg2"
   sodipodi:docname="P_train.svg"
   inkscape:version="0.92.3 (2405546, 2018-03-11)"
   viewBox="10 -10 380 380">
  <title
     id="title886">P train</title>
  <metadata
     id="metadata76">
    <rdf:RDF>
      <cc:Work
         rdf:about="">
        <dc:format>image/svg+xml</dc:format>
        <dc:type
           rdf:resource="http://purl.org/dc/dcmitype/StillImage" />
        <dc:title>P train</dc:title>
        <cc:license
           rdf:resource="http://creativecommons.org/licenses/by-sa/4.0/" />
        <dc:source>https://commons.wikimedia.org/wiki/File:P_train.svg</dc:source>
        <dc:date>2006-08-02</dc:date>
        <dc:creator>
          <cc:Agent>
            <dc:title>https://commons.wikimedia.org/wiki/User:Chris-martin</dc:title>
          </cc:Agent>
        </dc:creator>
        <dc:publisher>
          <cc:Agent>
            <dc:title>wikimedia.org</dc:title>
          </cc:Agent>
        </dc:publisher>
      </cc:Work>
      <cc:License
         rdf:about="http://creativecommons.org/licenses/by-sa/4.0/">
        <cc:permits
           rdf:resource="http://creativecommons.org/ns#Reproduction" />
        <cc:permits
           rdf:resource="http://creativecommons.org/ns#Distribution" />
        <cc:requires
           rdf:resource="http://creativecommons.org/ns#Notice" />
        <cc:requires
           rdf:resource="http://creativecommons.org/ns#Attribution" />
        <cc:permits
           rdf:resource="http://creativecommons.org/ns#DerivativeWorks" />
        <cc:requires
           rdf:resource="http://creativecommons.org/ns#ShareAlike" />
      </cc:License>
    </rdf:RDF>
  </metadata>
  <sodipodi:namedview
     pagecolor="#ffffff"
     bordercolor="#666666"
     borderopacity="1"
     objecttolerance="10"
     gridtolerance="10"
     guidetolerance="10"
     inkscape:pageopacity="0"
     inkscape:pageshadow="2"
     inkscape:window-width="1920"
     inkscape:window-height="1016"
     id="namedview74"
     showgrid="false"
     inkscape:zoom="0.65555556"
     inkscape:cx="-424.66102"
     inkscape:cy="167.79662"
     inkscape:window-x="0"
     inkscape:window-y="27"
     inkscape:window-maximized="1"
     inkscape:current-layer="svg2"
     fit-margin-right="0"
     viewbox-width="380"
     viewbox-x="10"
     viewbox-y="-10" />
  <defs
     id="defs5">
    <linearGradient
       id="linearGradient3964">
      <stop
         style="stop-color:black;stop-opacity:1"
         offset="0"
         id="stop3966" />
      <stop
         style="stop-color:white;stop-opacity:1"
         offset="1"
         id="stop3968" />
    </linearGradient>
    <linearGradient
       id="linearGradient3938">
      <stop
         style="stop-color:#6b6b6b;stop-opacity:1"
         offset="0"
         id="stop3940" />
      <stop
         style="stop-color:#d5d5d5;stop-opacity:1"
         offset="1"
         id="stop3942" />
    </linearGradient>
    <linearGradient
       id="linearGradient2965">
      <stop
         style="stop-color:white;stop-opacity:1"
         offset="0"
         id="stop2967" />
      <stop
         style="stop-color:#3f3f3f;stop-opacity:1"
         offset="1"
         id="stop2969" />
    </linearGradient>
    <linearGradient
       id="linearGradient2935">
      <stop
         style="stop-color:black;stop-opacity:1"
         offset="0"
         id="stop2937" />
      <stop
         style="stop-color:black;stop-opacity:0"
         offset="1"
         id="stop2939" />
    </linearGradient>
    <linearGradient
       id="linearGradient2889">
      <stop
         style="stop-color:#a0a3e1;stop-opacity:1"
         offset="0"
         id="stop2891" />
      <stop
         style="stop-color:#dedcfa;stop-opacity:1"
         offset="1"
         id="stop2893" />
    </linearGradient>
    <linearGradient
       id="linearGradient2812">
      <stop
         style="stop-color:black;stop-opacity:1"
         offset="0"
         id="stop2814" />
      <stop
         style="stop-color:white;stop-opacity:0"
         offset="1"
         id="stop2816" />
    </linearGradient>
    <mask
       id="mask2799">
      <path
         d="m 168.99397,144.76334 c 0,0 45.49917,11.86935 77.15076,3.95645 31.6516,-7.9129 63.3032,-45.49917 63.3032,-45.49917 0,0 34.61893,88.031 38.57538,118.69349 3.95645,30.66248 1.97822,67.25964 -20.77136,90.00923 -22.74959,22.74958 -71.57949,13.48417 -94.95479,-9.89113 -13.88286,-13.88285 -27.69515,-40.55361 -39.5645,-68.24875 -11.86935,-27.69515 -24.72781,-90.00923 -23.73869,-89.02012 z"
         style="fill:#e8e7fe;fill-opacity:1;fill-rule:evenodd;stroke:#000000;stroke-width:3.125;stroke-linecap:butt;stroke-linejoin:round;stroke-miterlimit:4;stroke-dasharray:none;stroke-opacity:1"
         id="use2796"
         inkscape:connector-curvature="0" />
    </mask>
    <mask
       id="mask2858">
      <path
         d="m 100,24 c 0,0 -11.5,42.5 34,52 45.5,9.5 83,-9 83,-9 0,0 -6,96.46447 -21,125.46447 C 181,221.46447 141.5,254 118,254 94.5,254 76,238.5 70,223.5 64,208.5 60.5,128 71,102 78.202941,84.164147 73,78.5 82,49.5 87.643273,31.316121 100.5,23 100,24 Z"
         style="fill:#e8e7fe;fill-opacity:1;fill-rule:evenodd;stroke:#000000;stroke-width:3.125;stroke-linecap:butt;stroke-linejoin:miter;stroke-miterlimit:4;stroke-dasharray:none;stroke-opacity:1"
         id="use2848"
         inkscape:connector-curvature="0" />
    </mask>
    <linearGradient
       x1="92.604424"
       y1="304.50995"
       x2="263.82959"
       y2="26.290426"
       id="linearGradient2895"
       xlink:href="#linearGradient2889"
       gradientUnits="userSpaceOnUse"
       gradientTransform="matrix(0.851641,-0.524127,0.524127,0.851641,-45.27941,132.512)" />
    <linearGradient
       x1="162.625"
       y1="190"
       x2="124.875"
       y2="141"
       id="linearGradient2941"
       xlink:href="#linearGradient2935"
       gradientUnits="userSpaceOnUse" />
    <radialGradient
       cx="126.96671"
       cy="60.548233"
       r="38.593609"
       fx="126.96671"
       fy="60.548233"
       id="radialGradient2973"
       xlink:href="#linearGradient2965"
       gradientUnits="userSpaceOnUse"
       gradientTransform="matrix(0.828879,0.01120816,-0.03007379,2.224046,28.98796,-87.07468)" />
    <linearGradient
       x1="210.25703"
       y1="170.84894"
       x2="192.0867"
       y2="125.59411"
       id="linearGradient3944"
       xlink:href="#linearGradient3938"
       gradientUnits="userSpaceOnUse" />
    <linearGradient
       x1="230.125"
       y1="206.5"
       x2="201.875"
       y2="128.5"
       id="linearGradient3970"
       xlink:href="#linearGradient3964"
       gradientUnits="userSpaceOnUse" />
  </defs>
  <path
     d="M 361.81179,80.415831 C 405.81082,151.90878 369.03348,254.4506 279.6673,309.44939 190.30112,364.44819 82.187243,351.07704 38.188207,279.58409 -5.8108301,208.09114 30.966509,105.54933 120.33269,50.550529 209.69887,-4.448266 317.81275,8.9228838 361.81179,80.415831 Z"
     style="opacity:1;fill:url(#linearGradient2895);fill-opacity:1;stroke:none;stroke-width:3.125;stroke-linecap:butt;stroke-linejoin:round;stroke-miterlimit:4;stroke-dasharray:none;stroke-dashoffset:0;stroke-opacity:1"
     id="path2869"
     inkscape:connector-curvature="0" />
  <path
     d="m 82,301 c 0,0 16,52 21,53 5,1 103,-23 105,-28 2,-5 -2,-16 -2,-16 l 18,-6 c 0,0 6,10 14,8 8,-2 13,-24 13,-24 l 5,-1.25 c 0,0 7,14.5 14,11 7,-3.5 13.25,-26.75 13.25,-26.75 l 10.25,-4.25 c 0,0 10.5,7.25 17.25,-1.75 6.75,-9 7.25,-25.25 7.25,-25.25 0,0 8.75,-12.75 13.5,-23.25 C 336.25,206 340,197 340,197 l 22.25,-14.25 -12.5,-10.5 L 355,84 233,76 194.5,80 c 0,0 8.5,-38.5 5,-43.5 C 196,31.5 177,26 160,26 c -17,0 -35.5,3 -37.5,6.5 -2,3.5 8,102.5 8,102.5 0,0 -22,13 -23.5,32.5 -1.5,19.5 12.25,42.25 12.25,42.25 l -4.5,29 z"
     style="opacity:0.3;fill:#000000;fill-opacity:1;fill-rule:evenodd;stroke:none;stroke-width:1px;stroke-linecap:butt;stroke-linejoin:miter;stroke-opacity:1"
     id="path3978"
     inkscape:connector-curvature="0" />
  <rect
     width="152"
     height="77"
     x="154"
     y="164"
     style="opacity:1;fill:#000000;fill-opacity:1;stroke:none;stroke-width:3.75;stroke-linecap:round;stroke-linejoin:round;stroke-miterlimit:4;stroke-dasharray:none;stroke-opacity:1"
     id="rect3972" />
  <path
     d="M 170,225 283,175 250,138 142,195"
     style="fill:url(#linearGradient3970);fill-opacity:1;fill-rule:evenodd;stroke:#000000;stroke-width:3.75;stroke-linecap:butt;stroke-linejoin:miter;stroke-miterlimit:4;stroke-dasharray:none;stroke-opacity:1"
     id="path3954"
     inkscape:connector-curvature="0" />
  <path
     d="m 158,75 65,-7 121,9 -68,58"
     style="fill:#d5d5d5;fill-opacity:1;fill-rule:evenodd;stroke:#000000;stroke-width:3.75;stroke-linecap:butt;stroke-linejoin:round;stroke-miterlimit:4;stroke-dasharray:none;stroke-opacity:1"
     id="path3976"
     inkscape:connector-curvature="0" />
  <path
     d="m 337.28993,171.9096 6.36397,-94.045206 -66.22897,6.443651 -113.20458,-8.736544 -14.84403,70.528699 65.9377,-35.7089 66.11448,82.7315"
     style="fill:#6b6b6b;fill-opacity:1;fill-rule:evenodd;stroke:#000000;stroke-width:3.75;stroke-linecap:butt;stroke-linejoin:miter;stroke-miterlimit:4;stroke-dasharray:none;stroke-opacity:1"
     id="path3950"
     inkscape:connector-curvature="0" />
  <use
     transform="matrix(-1,0,0,1,447,0)"
     id="use3952"
     x="0"
     y="0"
     width="400"
     height="360"
     xlink:href="#path3932" />
  <path
     d="m 219.5,286 c -31.33219,23.83359 -50.04091,-1.39566 -5.5,-13.5 -39.54713,12.45411 -66.04557,-18.31761 2.5,-26 -43.76265,9.1729 -77.64525,-24.08797 0.5,-28"
     style="fill:#1f1f1f;fill-opacity:1;fill-rule:evenodd;stroke:#000000;stroke-width:7.5;stroke-linecap:butt;stroke-linejoin:miter;stroke-miterlimit:4;stroke-dasharray:none;stroke-opacity:1"
     id="path3920"
     inkscape:connector-curvature="0" />
  <path
     d="m 113.5,192 c -6.61775,19.82837 -7.88117,33.45698 -5.55025,42.92373 L 178,236.5 c 0.39714,-17.87055 -6.06282,-31.74113 -11,-46.5"
     style="fill:#6b6b6b;fill-opacity:1;fill-rule:evenodd;stroke:#000000;stroke-width:3.75;stroke-linecap:butt;stroke-linejoin:miter;stroke-miterlimit:4;stroke-dasharray:none;stroke-opacity:1"
     id="path2955"
     inkscape:connector-curvature="0" />
  <path
     d="m 106.06602,230.59946 c -11.313709,23.098 -22.627419,44.06912 -33.941128,61.51829 8.024235,16.6973 14.765331,50.23743 24.748738,50.20458 11.27054,-0.0371 91.03229,-17.4481 99.70205,-26.16295 6.34904,-6.38207 -18.00212,-90.12701 -16.97056,-89.09545 -29.12762,13.13665 -49.93615,6.97288 -73.5391,3.53553 z"
     style="fill:#d5d5d5;fill-opacity:1;fill-rule:evenodd;stroke:#000000;stroke-width:3.75;stroke-linecap:butt;stroke-linejoin:miter;stroke-miterlimit:4;stroke-dasharray:none;stroke-opacity:1"
     id="path2943"
     inkscape:connector-curvature="0" />
  <path
     d="m 172.38095,244.7619 6.66667,63.80953 m -17.66667,-63.80953 -1.95238,65.76191 m -10.38095,-64.80952 -11.66667,70.09523 m 0.2381,-70.09523 -19.66667,81.33333 m 10.61905,-81.33333 -26.61905,77.47619 m 17.95238,-77.90477 -26.142855,62.52381 m 15.619045,-62.66666 -21.904759,43.80952"
     style="fill:none;fill-opacity:0.75;fill-rule:evenodd;stroke:#000000;stroke-width:3.75;stroke-linecap:round;stroke-linejoin:miter;stroke-miterlimit:4;stroke-opacity:1"
     id="path1979"
     inkscape:connector-curvature="0" />
  <path
     d="m 115.75808,195.46589 c -10.34676,24.64492 8.9772,23.25019 25.2293,23.96961 16.25211,0.71942 33.60092,1.27003 27.88196,-20.01363"
     style="fill:#a2a2a2;fill-opacity:1;fill-rule:evenodd;stroke:#000000;stroke-width:1.00000012px;stroke-linecap:butt;stroke-linejoin:miter;stroke-opacity:1"
     id="path2957"
     inkscape:connector-curvature="0" />
  <g
     id="g3946">
    <path
       d="m 166.8772,202.31519 88.38834,-40.30509 c -0.2383,-26.05322 -8.26,-47.88862 -38.18376,-50.91169 l -79.90306,14.14214"
       style="fill:url(#linearGradient3944);fill-opacity:1;fill-rule:evenodd;stroke:#000000;stroke-width:3.75;stroke-linecap:butt;stroke-linejoin:round;stroke-miterlimit:4;stroke-dasharray:none;stroke-opacity:1"
       id="path3934"
       inkscape:connector-curvature="0" />
    <path
       d="m 185.96909,116.75526 c 32.00434,13.56982 37.97484,41.61546 35.35533,60.45764"
       style="fill:none;fill-opacity:0.75;fill-rule:evenodd;stroke:#000000;stroke-width:3.75;stroke-linecap:butt;stroke-linejoin:round;stroke-miterlimit:4;stroke-dasharray:none;stroke-opacity:1"
       id="path3936"
       inkscape:connector-curvature="0" />
  </g>
  <path
     d="m 124.80434,144.33243 c 0,0 -16.26346,-116.319064 -9.19239,-120.915258 7.07107,-4.596194 62.57895,-10.253048 70.35712,3.181981 7.77817,13.435029 -21.92031,115.611957 -21.92031,115.611957"
     style="fill:url(#radialGradient2973);fill-opacity:1;fill-rule:evenodd;stroke:#000000;stroke-width:3.75;stroke-linecap:butt;stroke-linejoin:miter;stroke-miterlimit:4;stroke-dasharray:none;stroke-opacity:1"
     id="path2959"
     inkscape:connector-curvature="0" />
  <path
     d="m 190.21173,166.95984 a 45.961943,45.961943 0 1 1 -91.923887,0 45.961944,45.961944 0 1 1 91.923887,0 z"
     style="opacity:1;fill:#d5d5d5;fill-opacity:1;stroke:#000000;stroke-width:3.75;stroke-linecap:round;stroke-miterlimit:4;stroke-dasharray:none;stroke-opacity:1"
     id="path2953"
     inkscape:connector-curvature="0" />
  <path
     d="m 159.99995,171.14284 a 17.619046,17.619046 0 1 1 -35.23809,0 17.619046,17.619046 0 1 1 35.23809,0 z"
     style="opacity:1;fill:#000000;fill-opacity:1;stroke:none;stroke-width:3.75;stroke-linecap:round;stroke-miterlimit:4;stroke-dasharray:none;stroke-opacity:1"
     id="path2881"
     inkscape:connector-curvature="0" />
  <path
     d="m 151.42857,166.66667 a 9.04762,9.04762 0 1 1 -18.09524,0 9.04762,9.04762 0 1 1 18.09524,0 z"
     style="opacity:1;fill:#dbdbdb;fill-opacity:1;stroke:none;stroke-width:3.75;stroke-linecap:round;stroke-miterlimit:4;stroke-dasharray:none;stroke-opacity:1"
     id="path1993"
     inkscape:connector-curvature="0" />
  <path
     d="m 159.5,186.5 6.5,8.5 m -1,-18.5 10.5,8 m -9,-19 13.5,4 M 164.5,158 176,151.5 m -25.5,39.5 5,11 m -13,-8.99999 0.5,12.5 M 134,192.5 130,204 m -2.5,-15.5 -7,9 m 37,-46.5 11,-10.5 m -18,7 c 0.5,-2.5 6,-14 6,-14 m -13,14 1,-16 M 136,150 131,136 m -2,17.5 -9,-10 m 3.5,16.5 -11.5,-5 m 10.5,13.5 -12,-0.5 m 12,7.5 -12,2 m 13,5 -8,5"
     style="fill:none;fill-opacity:0.75;fill-rule:evenodd;stroke:url(#linearGradient2941);stroke-width:3.75;stroke-linecap:round;stroke-linejoin:miter;stroke-miterlimit:4;stroke-opacity:1"
     id="path2883"
     inkscape:connector-curvature="0" />
  <path
     d="m 141.5981,18.644201 c -25.55394,1.06066 -26.51651,8.838834 -26.51651,8.838834 18.41112,6.062291 42.15669,6.460626 69.47325,-0.530329 -3.93158,-4.494776 -10.14742,-7.954952 -22.45065,-7.954952"
     style="fill:#6b6b6b;fill-opacity:1;fill-rule:evenodd;stroke:none;stroke-width:1px;stroke-linecap:butt;stroke-linejoin:miter;stroke-opacity:1"
     id="path2963"
     inkscape:connector-curvature="0" />
  <path
     d="m 227.5,291.5 c 5,-15 31.5,-12.5 34,-20.5 2.5,-8 25,-14.5 29,-18 4,-3.5 50,-63.5 37.5,-77.5 -12.5,-14 -41,50 -41,50 l -66,32"
     style="fill:#000000;fill-opacity:1;fill-rule:evenodd;stroke:none;stroke-width:1px;stroke-linecap:butt;stroke-linejoin:miter;stroke-opacity:1"
     id="path3918"
     inkscape:connector-curvature="0" />
  <g
     id="g3900">
    <path
       d="m 240.4163,254.99464 a 15.379573,47.72971 0 1 1 -30.75914,0 15.379573,47.72971 0 1 1 30.75914,0 z"
       style="opacity:1;fill:#e4e4e4;fill-opacity:1;stroke:#000000;stroke-width:3.75;stroke-linecap:round;stroke-miterlimit:4;stroke-dasharray:none;stroke-opacity:1"
       id="path2986"
       inkscape:connector-curvature="0" />
    <g
       style="opacity:0.8"
       id="g3890">
      <path
         d="m 224.85996,206.91138 v 95.10586"
         style="fill:none;fill-opacity:0.75;fill-rule:evenodd;stroke:#000000;stroke-width:3.75;stroke-linecap:butt;stroke-linejoin:miter;stroke-miterlimit:4;stroke-dasharray:none;stroke-opacity:1"
         id="path3873"
         inkscape:connector-curvature="0" />
      <path
         d="m 209.65716,253.58043 30.75915,0.35355"
         style="fill:none;fill-opacity:0.75;fill-rule:evenodd;stroke:#000000;stroke-width:3.75;stroke-linecap:butt;stroke-linejoin:miter;stroke-miterlimit:4;stroke-dasharray:none;stroke-opacity:1"
         id="path3875"
         inkscape:connector-curvature="0" />
      <path
         d="m 235.113,219.99286 -20.50609,68.94291"
         style="fill:none;fill-opacity:0.75;fill-rule:evenodd;stroke:#000000;stroke-width:3.75;stroke-linecap:butt;stroke-linejoin:miter;stroke-miterlimit:4;stroke-dasharray:none;stroke-opacity:1"
         id="path3877"
         inkscape:connector-curvature="0" />
      <path
         d="m 214.25335,221.05352 21.92032,65.76093"
         style="fill:none;fill-opacity:0.75;fill-rule:evenodd;stroke:#000000;stroke-width:3.75;stroke-linecap:butt;stroke-linejoin:miter;stroke-miterlimit:4;stroke-dasharray:none;stroke-opacity:1"
         id="path3879"
         inkscape:connector-curvature="0" />
      <path
         d="M 231.22392,211.50758 218.496,298.12816"
         style="fill:none;fill-opacity:0.75;fill-rule:evenodd;stroke:#000000;stroke-width:3.75;stroke-linecap:butt;stroke-linejoin:miter;stroke-miterlimit:4;stroke-dasharray:none;stroke-opacity:1"
         id="path3881"
         inkscape:connector-curvature="0" />
      <path
         d="m 217.43534,212.56824 14.49568,84.1457"
         style="fill:none;fill-opacity:0.75;fill-rule:evenodd;stroke:#000000;stroke-width:3.75;stroke-linecap:butt;stroke-linejoin:miter;stroke-miterlimit:4;stroke-dasharray:none;stroke-opacity:1"
         id="path3883"
         inkscape:connector-curvature="0" />
      <path
         d="m 239.35565,238.73119 -28.99138,31.1127"
         style="fill:none;fill-opacity:0.75;fill-rule:evenodd;stroke:#000000;stroke-width:3.75;stroke-linecap:butt;stroke-linejoin:miter;stroke-miterlimit:4;stroke-dasharray:none;stroke-opacity:1"
         id="path3885"
         inkscape:connector-curvature="0" />
      <path
         d="m 210.71782,239.08474 28.99138,29.69849"
         style="fill:none;fill-opacity:0.75;fill-rule:evenodd;stroke:#000000;stroke-width:3.75;stroke-linecap:butt;stroke-linejoin:miter;stroke-miterlimit:4;stroke-dasharray:none;stroke-opacity:1"
         id="path3887"
         inkscape:connector-curvature="0" />
    </g>
  </g>
  <path
     d="m 277.5,196.5 14,11 L 350,173 335.5,161.5 Z"
     style="fill:#6b6b6b;fill-opacity:1;fill-rule:evenodd;stroke:#000000;stroke-width:3.75;stroke-linecap:butt;stroke-linejoin:round;stroke-miterlimit:4;stroke-dasharray:none;stroke-opacity:1"
     id="path3922"
     inkscape:connector-curvature="0" />
  <use
     transform="translate(32.5,-16.5)"
     id="use3912"
     x="0"
     y="0"
     width="400"
     height="360"
     xlink:href="#g3900" />
  <use
     transform="matrix(1,0,0,0.543563,66,93.80826)"
     id="use3914"
     x="0"
     y="0"
     width="400"
     height="360"
     xlink:href="#g3900" />
  <path
     d="m 224,253 34.5,-15.5 33,-6"
     style="fill:none;fill-opacity:0.75;fill-rule:evenodd;stroke:#000000;stroke-width:7.5;stroke-linecap:round;stroke-linejoin:miter;stroke-miterlimit:4;stroke-dasharray:none;stroke-opacity:1"
     id="path3916"
     inkscape:connector-curvature="0" />
  <path
     d="M 287,186.5 V 164 l 40.5,-16 v 16.5 z"
     style="fill:#d5d5d5;fill-opacity:1;fill-rule:evenodd;stroke:#000000;stroke-width:3.75;stroke-linecap:butt;stroke-linejoin:miter;stroke-miterlimit:4;stroke-dasharray:none;stroke-opacity:1"
     id="path3924"
     inkscape:connector-curvature="0" />
  <path
     d="M 285.5,156 V 89 H 333 v 50.5 z"
     style="fill:#000000;fill-opacity:1;fill-rule:evenodd;stroke:#ffffff;stroke-width:3.75;stroke-linecap:butt;stroke-linejoin:round;stroke-miterlimit:4;stroke-dasharray:none;stroke-opacity:1"
     id="path3926"
     inkscape:connector-curvature="0" />
  <path
     d="m 316.5,90 v 54"
     style="fill:none;fill-opacity:0.75;fill-rule:evenodd;stroke:#ffffff;stroke-width:3.75;stroke-linecap:butt;stroke-linejoin:miter;stroke-miterlimit:4;stroke-dasharray:none;stroke-opacity:1"
     id="path3928"
     inkscape:connector-curvature="0" />
  <path
     d="M 316.5,119 H 333"
     style="fill:none;fill-opacity:0.75;fill-rule:evenodd;stroke:#ffffff;stroke-width:3.75;stroke-linecap:butt;stroke-linejoin:miter;stroke-miterlimit:4;stroke-dasharray:none;stroke-opacity:1"
     id="path3930"
     inkscape:connector-curvature="0" />
  <path
     d="m 270.25,144.5 v -55 h -41.5 v 11 z"
     style="fill:#000000;fill-opacity:1;fill-rule:evenodd;stroke:#ffffff;stroke-width:3.75;stroke-linecap:butt;stroke-linejoin:round;stroke-miterlimit:4;stroke-dasharray:none;stroke-opacity:1"
     id="path3932"
     inkscape:connector-curvature="0" />
  <path
     d="M 277.5,83.30019 V 198.19997"
     style="fill:none;fill-opacity:0.75;fill-rule:evenodd;stroke:#000000;stroke-width:3.75000119;stroke-linecap:butt;stroke-linejoin:miter;stroke-miterlimit:4;stroke-dasharray:none;stroke-opacity:1"
     id="path3974"
     inkscape:connector-curvature="0" />
</svg>
